<?xml version="1.0" standalone="no"?>
<!DOCTYPE svg PUBLIC "-//W3C//DTD SVG 20010904//EN"
 "http://www.w3.org/TR/2001/REC-SVG-20010904/DTD/svg10.dtd">
<svg version="1.0" xmlns="http://www.w3.org/2000/svg"
 width="1080.000000pt" height="1080.000000pt" viewBox="0 0 1080.000000 1080.000000"
 preserveAspectRatio="xMidYMid meet">

<g transform="translate(0.000000,1080.000000) scale(0.100000,-0.100000)"
fill="#000000" stroke="none">
<path d="M5235 9975 c-16 -14 -33 -25 -37 -25 -7 0 -89 -47 -248 -142 -188
-113 -351 -208 -356 -208 -3 0 -51 -29 -107 -63 -56 -35 -137 -84 -180 -108
-85 -48 -92 -52 -152 -90 -22 -14 -56 -34 -75 -45 -66 -36 -255 -147 -282
-165 -15 -11 -30 -19 -33 -19 -5 0 -142 -80 -303 -176 -40 -24 -75 -44 -77
-44 -2 0 -36 -20 -74 -45 -38 -25 -80 -49 -94 -54 -23 -9 -84 -46 -194 -118
-29 -19 -67 -41 -85 -49 -18 -8 -49 -25 -69 -37 -60 -38 -172 -103 -218 -128
-24 -13 -51 -28 -60 -34 -9 -5 -58 -36 -108 -67 -51 -32 -95 -58 -98 -58 -4 0
-69 -38 -146 -85 -77 -47 -143 -85 -146 -85 -5 0 -136 -77 -213 -125 -19 -12
-62 -37 -95 -55 -33 -19 -78 -46 -100 -60 -22 -15 -76 -46 -120 -70 -44 -23
-87 -49 -96 -56 -8 -8 -19 -14 -23 -14 -4 0 -20 -9 -35 -20 l-28 -19 -7 -803
c-4 -442 -9 -938 -12 -1103 -2 -165 -7 -856 -10 -1537 l-6 -1236 41 -28 c25
-16 44 -37 47 -53 36 -161 135 -295 299 -403 39 -25 372 -225 740 -443 369
-219 1057 -627 1530 -908 850 -505 1029 -603 1134 -627 130 -30 283 6 485 114
380 203 3402 1866 3450 1899 151 102 227 204 266 355 8 33 20 48 51 67 l39 26
0 831 c-1 458 -7 1372 -15 2032 -8 661 -15 1341 -15 1511 l0 310 -53 28 c-28
16 -88 48 -132 72 -44 23 -105 57 -135 75 -58 34 -129 73 -255 140 -44 23 -87
48 -95 55 -8 7 -48 29 -88 49 -40 19 -85 44 -100 54 -15 11 -76 45 -137 77
-60 32 -135 72 -165 90 -77 45 -140 80 -250 138 -52 27 -102 55 -110 62 -8 7
-58 35 -110 62 -52 28 -135 74 -183 102 -49 28 -91 51 -93 51 -2 0 -65 35
-139 78 -74 42 -177 100 -229 127 -116 62 -194 105 -392 218 -84 48 -156 87
-159 87 -6 0 -216 118 -230 130 -5 4 -48 28 -95 52 -47 24 -116 62 -155 85
-38 22 -110 62 -160 88 -49 27 -110 61 -135 77 -25 15 -72 41 -105 57 -52 26
-97 50 -205 112 -14 8 -27 17 -30 21 -3 3 -39 22 -81 41 -42 19 -79 40 -83 46
-11 17 -28 13 -61 -14z m487 -2073 c84 -60 353 -249 598 -422 245 -172 448
-318 453 -324 4 -6 5 -33 3 -61 -3 -27 -8 -106 -11 -175 -3 -69 -8 -145 -10
-170 -13 -156 -26 -513 -19 -519 5 -5 178 -126 384 -271 206 -144 383 -269
392 -278 14 -12 16 -25 12 -71 -3 -31 -9 -110 -12 -176 l-7 -120 -30 0 c-27 1
-238 144 -707 479 -31 23 -134 95 -229 161 l-171 120 6 110 c4 61 9 151 11
200 3 50 10 160 15 245 5 85 12 202 16 260 l6 105 -49 34 c-26 19 -131 93
-233 165 -286 201 -407 286 -510 358 l-96 66 -164 -70 c-91 -38 -297 -126
-459 -194 -162 -68 -296 -125 -297 -127 -2 -2 -8 -80 -14 -173 -6 -93 -19
-320 -30 -504 l-20 -335 22 -15 c135 -91 1155 -815 1160 -824 4 -6 6 -15 5
-21 -3 -9 -312 -145 -330 -145 -4 0 -70 44 -145 97 -276 195 -623 438 -841
591 l-223 157 6 158 c4 87 9 182 11 210 3 29 16 266 30 527 14 261 28 484 30
495 3 15 48 38 192 99 396 167 539 227 558 236 42 18 95 41 270 115 99 41 198
84 220 94 22 11 43 20 47 20 4 1 76 -48 160 -107z m678 -2020 c58 -43 123 -89
145 -102 22 -13 58 -38 80 -56 22 -18 79 -58 126 -91 48 -32 125 -86 171 -119
47 -34 95 -67 107 -74 13 -6 60 -40 104 -75 45 -34 109 -79 142 -100 69 -44
211 -150 220 -165 3 -5 2 -81 -4 -167 -6 -87 -13 -214 -16 -283 -3 -69 -8
-163 -11 -210 -10 -145 -11 -159 -23 -380 -7 -118 -14 -233 -16 -255 -2 -22
-4 -55 -4 -73 -1 -35 11 -27 -176 -113 -11 -5 -69 -29 -130 -53 -60 -24 -148
-61 -195 -81 -70 -30 -280 -119 -365 -154 -46 -19 -172 -73 -200 -85 -16 -8
-66 -28 -110 -47 -44 -18 -84 -36 -90 -41 -26 -23 -66 0 -270 154 -27 21 -53
38 -57 38 -5 0 -61 39 -127 88 -66 48 -139 99 -163 114 -23 15 -79 55 -123 88
-44 34 -85 63 -91 66 -7 3 -133 -46 -280 -109 -148 -63 -298 -126 -334 -140
-57 -23 -89 -36 -215 -92 -16 -7 -59 -25 -95 -38 -36 -14 -150 -62 -254 -106
-104 -45 -194 -81 -199 -81 -8 0 -323 219 -790 549 -97 69 -232 164 -298 211
l-122 85 6 135 c4 74 15 284 26 465 11 182 25 434 32 560 7 136 16 235 23 242
12 13 145 70 936 403 107 45 225 95 262 111 36 16 75 29 85 29 10 0 83 -46
163 -102 211 -147 657 -461 868 -611 l183 -129 -5 -62 c-3 -33 -8 -115 -12
-181 -3 -69 -11 -123 -17 -127 -15 -9 -31 0 -166 97 -575 406 -1037 728 -1045
728 -6 0 -113 -43 -238 -97 -126 -53 -330 -139 -455 -192 -126 -53 -229 -98
-231 -99 -2 -1 -14 -196 -27 -431 -13 -236 -26 -463 -29 -505 l-6 -75 103 -72
c206 -145 238 -168 280 -198 160 -118 491 -344 501 -344 8 0 33 9 57 19 24 10
132 56 239 101 316 134 471 199 540 230 36 15 87 37 114 49 l49 21 -29 22
c-48 37 -47 27 -29 258 10 137 16 251 20 370 4 173 8 174 170 55 39 -28 93
-67 120 -86 62 -42 76 -59 71 -84 -4 -18 -13 -138 -20 -278 -3 -46 -2 -48 43
-77 25 -16 93 -63 151 -105 58 -41 164 -116 237 -167 72 -51 189 -133 259
-183 198 -140 167 -129 252 -95 40 17 96 40 125 53 29 13 68 30 87 37 19 7 40
17 45 21 6 4 71 32 146 62 75 31 156 64 180 75 24 11 73 32 109 46 120 49 160
71 162 86 2 19 3 43 12 215 4 77 9 149 11 160 2 11 7 79 10 150 3 72 10 204
15 295 5 90 6 167 2 171 -4 4 -32 23 -62 43 -30 20 -59 39 -65 44 -58 44 -198
143 -216 153 -13 7 -58 38 -99 69 -41 31 -115 84 -165 118 -49 34 -128 89
-173 122 l-84 61 -71 -30 c-40 -16 -91 -39 -114 -50 -23 -12 -46 -21 -51 -21
-6 0 -23 -7 -38 -15 -44 -23 -61 -19 -138 32 -217 145 -267 193 -218 210 9 3
44 18 78 34 33 16 63 29 67 29 4 0 32 12 64 26 32 14 67 30 78 34 39 15 121
50 235 99 63 28 122 51 130 51 9 0 63 -35 120 -78z"/>
</g>
</svg>
